<?xml version="1.0" encoding="UTF-8"?>
<svg id="Layer_2" xmlns="http://www.w3.org/2000/svg" version="1.1" viewBox="0 0 377.7 370.5">
  <!-- Generator: Adobe Illustrator 29.3.1, SVG Export Plug-In . SVG Version: 2.1.0 Build 151)  -->
  <defs>
    <style>
      .st0 {
        fill: #e56525;
      }
    </style>
  </defs>
  <path class="st0" d="M321.2,104.1c26.1-1.9,46.8,20.9,54.1,44.1,4.8,15.1,2.8,30.6-7.2,43.1-5.5,6.8-14.9,9.8-20.5,15.5-.5.4-1.2.6-1.1,1.6,4.6,5.8,10.5,10.8,13.5,17.9,2.4,5.6,6.3,21.6,5.8,27.3-.4,4.5-4.1,15.6-5.9,20.1-7.7,19.4-33.3,36.3-54.6,31.6-.3,8.1-2.4,17.6-4.9,25.4-4.2,13.5-25,31.3-39,33.5-18.7,2.9-27.2-.6-42.6-10.1-4.6-2.9-8.9-6.6-13.6-9-16,28.5-57.1,32.5-82.7,14.8-10.3-7.1-20.9-23.1-20.8-36.1-9.4,1.1-20.6-.7-29.9-3-12.7-3.1-26.2-14.7-35.3-23.9-11.8-11.9-14.8-41.6-11.1-57.1.8-3.5,5.8-10.2,5-12.7-11.4-12.7-28.3-25.8-29.8-44.1-.6-7.6-.8-20.6,2.5-27.4,3.5-7.1,21.4-26,28.1-30.4,2.4-1.6,14.4-7.2,14.9-8.4,1.8-3.6-2-17.4-2.4-22.3-1.2-17,3.4-40.2,18.3-50.3,15.8-10.7,27.5-10.1,45.9-8,7.3.8,15.5,2.5,22,5.9,7.3-13.4,17.5-33.5,32.5-39.3,21.2-8.3,54.7,2.7,69.7,19.1,1.6,1.8,7.5,10.6,8.4,10.9,2.2.7,13.6-3.9,17-4.8,13-3.2,20.6-2.4,32.8,3.6,13.6,6.8,34.2,30.1,35.7,45.5.8,8-.4,20.1-4.6,26.9h0Z"/>
</svg>