<?xml version="1.0" encoding="UTF-8"?>
<svg id="Layer_2" xmlns="http://www.w3.org/2000/svg" version="1.1" viewBox="0 0 261.3 354.2">
  <!-- Generator: Adobe Illustrator 29.3.1, SVG Export Plug-In . SVG Version: 2.1.0 Build 151)  -->
  <defs>
    <style>
      .st0 {
        fill: #685a03;
      }

      .st1 {
        fill: #823c02;
      }

      .st2 {
        fill: #e58821;
      }

      .st3 {
        fill: #697846;
      }
    </style>
  </defs>
  <path class="st2" d="M38.6,46.5c6,.8,2.9-1.1,4.3-3.7.3-.6,8.5-8.4,9.8-9.5,12-10.9,27.5-21.3,43.2-24.7.8-.2.6-1.8,1.4-2,9.2-2.2,21.5-1.9,30.6-4,.8-.2.6-1.8,1.4-1.9,6.4-1.5,21.4,0,27,2.3,5.2,2.2,10.9,3,16.6,5.3,3.7,1.5,5.2,1.6,8.9,2.4.9.2,2.6,3.7,3.5,3.9,1.6.4,3.2-.3,5,.3,1.2.4,2.8,6.1,8.2,3.7,46.1,33.8,61.9,69.7,63,127.3.2,11.5-6.5,33.9-12.2,43.8-10.2,17.6-22.5,25.2-39.8,34.7.1-9.2-.9-20.3-2-29.4-.8-6.6-3-24.1-5-29.5,5.9-.1,13.9,11.6,17,12.6,1.9.6,6.6-1.1,7.5-2.6,2.5-4.1-2.4-28.4-5.1-32.9-3.5-6-12.8-1.4-18.1.7-8.1,3.4-25,12-13.3,21.2-.9.3-7.4,13.5-9.5,16-4.9,6.1-12.2,9.2-18.2,14.3-5.1,4.4-8.3,9.3-12.5,14-7.3,8.2-16.3,15.8-17.8,27.6-.7,0-1.3,0-2,0-23.4-2.5-36.3-6.2-57.7-15.7-35.8-15.8-57.7-31-69.6-70.2C.1,140.5-.8,118.3.7,108.1c.8-5.6,5.1-12.3,5.9-18.5,3.2-2.2,3.7-6.5,5.7-9.8,4.7-8.1,12.2-14.4,18.3-22,1.4-1.8,2.5-4.5,4-6.4s3.6-2,3.9-4.8h0s0,0,0,0Z"/>
  <path class="st3" d="M130.4,236.3c.7,0,1.3,0,2,0,19.1,1.8,37.3.9,56.4-2.1,7.8-1.2,14.1-6.4,20.5-9.9-.3,24.7-8.8,46.1-20.1,67.3-10.4,19.6-29.5,41.2-47.5,54.4-1.8,1.3-12.6,8.1-13.9,8.2-2.2.1-5.2-1.1-5.4-3.5-2.9-28.4-8.1-55-1.5-83.4,2.5-10.5,8.5-20.1,9.5-30.9h0Z"/>
  <path class="st0" d="M190.4,164.4c.7-.2,2.3.4,3.2,0,1.3-.6.2-2.8,5.3-2,.9.1,3.3,2.6,3.5,3.1,2,5.4,4.2,22.9,5,29.5,1.1,9.1,2.1,20.3,2,29.4-6.4,3.5-12.8,8.7-20.5,9.9-19.1,3-37.2,3.8-56.4,2.1,1.5-11.8,10.5-19.4,17.8-27.6,4.2-4.7,7.4-9.7,12.5-14,6-5.1,13.2-8.2,18.2-14.3,2-2.5,8.6-15.7,9.5-16h0s0,0,0,0Z"/>
  <path class="st1" d="M190.4,164.4c-11.7-9.2,5.2-17.8,13.3-21.2,5.2-2.2,14.5-6.7,18.1-.7,2.7,4.5,7.6,28.8,5.1,32.9-.9,1.6-5.6,3.2-7.5,2.6-3.1-1-11-12.7-17-12.6-.2-.5-2.6-2.9-3.5-3.1-5-.7-3.9,1.4-5.3,2-1,.4-2.6-.2-3.2,0h0Z"/>
</svg>